<?xml version="1.0" encoding="UTF-8" standalone="no"?>
<svg width="600px" height="600px" viewBox="0 0 600 600" version="1.1" xmlns="http://www.w3.org/2000/svg" xmlns:xlink="http://www.w3.org/1999/xlink" xmlns:sketch="http://www.bohemiancoding.com/sketch/ns">
    <!-- Generator: Sketch 3.4 (15588) - http://www.bohemiancoding.com/sketch -->
    <title>decemberween</title>
    <desc>Created with Sketch.</desc>
    <defs></defs>
    <g id="Page-1" stroke="none" stroke-width="1" fill="none" fill-rule="evenodd" sketch:type="MSPage">
        <g id="decemberween" sketch:type="MSArtboardGroup">
            <polygon id="poly-01" stroke="#F1A9A8" fill="#F1A9A8" sketch:type="MSShapeGroup" points="465.231516 183 481.66069 216.925935 445.442852 456.187026 426.137729 462.47588 402 451.483739 "></polygon>
            <polygon id="poly-02" stroke="#F1A9A8" fill="#F1A9A8" sketch:type="MSShapeGroup" points="400.514454 176.183076 388 207.392603 403.247027 448.994795 464.743275 181.606053 439.249802 167 "></polygon>
            <polygon id="poly-03" stroke="#BFA400" fill="#BFA400" sketch:type="MSShapeGroup" points="337 117 379.95931 122.631012 403.707675 161.305918 386.232702 177.482075 343.768179 177.482075 "></polygon>
            <polygon id="poly-04" stroke="#42157A" fill="#42157C" sketch:type="MSShapeGroup" points="404.138316 160 435.519331 167.427426 402.308166 175.844426 388.322003 204.896288 381 184.279699 "></polygon>
            <polygon id="poly-05" stroke="#129406" fill="#0A7E00" sketch:type="MSShapeGroup" points="99.1065846 342.821825 282.298622 334 288.337271 374.550035 305.997789 484.777873 89 458.118417 "></polygon>
            <polygon id="poly-06" stroke="#151515" fill="#417505" sketch:type="MSShapeGroup" points="388.173823 159.024238 380 153.762394 380 150 388.173823 153.762394 "></polygon>
            <polygon id="poly-07" stroke="#6D29C7" fill="#6D29C7" sketch:type="MSShapeGroup" points="407.160928 165 431.536211 168.005268 402.124504 175.294941 389 204.204833 391.547028 178.062655 "></polygon>
            <polygon id="poly-08" stroke="#5B20A6" fill="#6D29C7" sketch:type="MSShapeGroup" points="400.991029 452 425.333982 463.388532 448.080123 457.819369 509.059796 493.831983 333 486.072825 "></polygon>
            <polygon id="poly-09" stroke="#FFCAC9" fill="#FFCAC9" sketch:type="MSShapeGroup" points="428.606505 175 436.672094 453.410402 411.828731 447.995859 398 220.930843 406.759977 187.67048 "></polygon>
            <polygon id="poly-10" stroke="#FFDDDD" fill="#FFDDDD" sketch:type="MSShapeGroup" points="468.290578 197.08748 476.398336 222.552138 438.007371 447.5368 429 176 449.906152 177.925733 "></polygon>
            <polygon id="poly-11" stroke="#424242" fill="#D0011B" sketch:type="MSShapeGroup" points="340.306308 121.236368 335 109.87876 336.43938 107.71969 337.715003 107 344.436092 118.232506 "></polygon>
            <polygon id="poly-12" stroke="#0FA801" fill="#0FA801" sketch:type="MSShapeGroup" points="276.070291 380 306.66069 440.482075 270.579084 412.29553 227 421.980562 246.240053 395.073666 "></polygon>
            <polygon id="poly-13" stroke="#098300" fill="#0FA801" sketch:type="MSShapeGroup" points="242.881205 429 260.76241 471.054075 242.881205 474.649714 229.209906 493.095988 225 466.109017 "></polygon>
            <polygon id="poly-14" stroke="#424242" fill="#417505" sketch:type="MSShapeGroup" points="340 123.004095 345.947985 118 351.89597 121.235794 348.291897 125.525821 343.009485 127.024238 "></polygon>
            <polygon id="poly-15" stroke="#A09F9F" fill="#B7B7B7" sketch:type="MSShapeGroup" points="110.133768 157 115.358549 158.779546 123.530967 165.443707 115.358549 170.454127 108 161.399668 "></polygon>
            <polygon id="poly-16" stroke="#C8C8C8" fill="#EBEBEB" sketch:type="MSShapeGroup" points="136.906837 258.134661 145.96481 334.656547 107.527459 336.306774 98 250.781734 134.404789 212 "></polygon>
            <polygon id="poly-17" stroke="#8D1C0D" fill="#BE1900" sketch:type="MSShapeGroup" points="234 377 257.403982 415.296787 249.410082 423.979454 238.193038 428.923106 240.148289 415.296787 "></polygon>
            <polygon id="poly-18" stroke="#8D1C0D" fill="#E12000" sketch:type="MSShapeGroup" points="268.109848 345 278.951585 363.992367 270.558481 392.402553 243.814687 372.283562 242 354.152152 "></polygon>
            <polygon id="poly-19" stroke="#097D00" fill="#129406" sketch:type="MSShapeGroup" points="188 334 238.37268 336.999646 242.004865 353.549705 221.353135 358.494763 195.978439 353.549705 "></polygon>
            <polygon id="poly-20" stroke="#BFA400" fill="#BFA400" sketch:type="MSShapeGroup" points="323.37961 386.645643 347.534207 396.156235 347.534207 435.98658 304.563651 412.990234 292 370 "></polygon>
            <polygon id="poly-21" stroke="#000000" fill="#000000" sketch:type="MSShapeGroup" points="449.502634 221.659712 462.956058 217 470.058781 229.507426 460.891167 240.669649 448 232.941415 "></polygon>
            <polygon id="poly-22" stroke="#EBEBEB" fill="#FFFFFF" sketch:type="MSShapeGroup" points="134 211.938568 205.978843 160 247.91906 196.50459 274.501205 241.784619 136.690404 257.987484 "></polygon>
            <polygon id="poly-23" stroke="#11860A" fill="#0FA801" sketch:type="MSShapeGroup" points="149 335 189.60345 335 227.564287 417.486036 185.858812 417.486036 178.473556 348.404227 "></polygon>
            <polygon id="poly-24" stroke="#098202" fill="#119405" sketch:type="MSShapeGroup" points="165.624546 340.43223 183.287016 374.759425 150.304064 368.212407 137 348.620849 140.778331 334 "></polygon>
            <polygon id="poly-25" stroke="#A09F9F" fill="#FFFFFF" sketch:type="MSShapeGroup" points="81.5807513 164.868798 108.581778 157 93.000208 191.838901 76.4023567 184.878149 67 169.358427 "></polygon>
            <polygon id="poly-26" stroke="#BFA400" fill="#BFA400" sketch:type="MSShapeGroup" points="341 361.617292 393.637173 341 398.753719 388.495325 385.783837 414.965018 348.144891 435.145858 "></polygon>
            <polygon id="poly-27" stroke="#8D1B0C" fill="#E12000" sketch:type="MSShapeGroup" points="227.341547 375 236.133854 375 227.341547 430.833609 203 426.844389 213.637918 409.934485 "></polygon>
            <polygon id="poly-28" stroke="#FFDFDF" fill="#FFDFDF" sketch:type="MSShapeGroup" points="465.76384 229.229114 460.695085 234.342146 455.448517 232.313098 454 224.90746 460.695085 223 "></polygon>
            <polygon id="poly-29" stroke="#0FA801" fill="#129406" sketch:type="MSShapeGroup" points="104 400.887513 112.168959 379.163509 158.519331 358 151.81382 393.017394 117.406316 423.519906 "></polygon>
            <polygon id="poly-30" stroke="#8D1C0D" fill="#E12000" sketch:type="MSShapeGroup" points="234 375 240.44488 375 261.064281 397.058078 272.156222 421.321612 257.496755 418.333211 "></polygon>
            <polygon id="poly-31" stroke="#151515" fill="#FFFFFF" sketch:type="MSShapeGroup" points="386.706685 144 389.83565 144 389.83565 147.895041 386.706685 153.71441 383 149.914952 "></polygon>
            <polygon id="poly-32" stroke="#098202" fill="#129406" sketch:type="MSShapeGroup" points="157.235537 391.408456 197.736375 390 168.262819 435.649714 161.973965 471.069146 132 423.010158 "></polygon>
            <polygon id="poly-33" stroke="#129406" fill="#129406" sketch:type="MSShapeGroup" points="256 458.787015 256 429 292.4821 431.940608 280.123672 451.495936 304.185497 485.880814 "></polygon>
            <polygon id="poly-34" stroke="#098300" fill="#0FA801" sketch:type="MSShapeGroup" points="93 389.030741 93 342.537641 126.987754 324 149.599685 346.979478 126.987754 376.834297 "></polygon>
            <polygon id="poly-35" stroke="#098800" fill="#0FA801" sketch:type="MSShapeGroup" points="170 423 200.131397 439.645643 233.734737 434.677392 222.000416 468.180228 180.044736 484.075257 "></polygon>
            <polygon id="poly-36" stroke="#941000" fill="#CD1B00" sketch:type="MSShapeGroup" points="239.66355 145 262.801866 149.083398 265.804323 164.210945 246.546992 193.562209 208 159.613081 "></polygon>
            <polygon id="poly-37" stroke="#EBEBEB" fill="#FFFFFF" sketch:type="MSShapeGroup" points="135 257.245267 217.748891 248.433281 303.891009 239 270.124615 333.426987 145.129075 333.426987 "></polygon>
            <polygon id="poly-38" stroke="#A09F9F" fill="#FFFFFF" sketch:type="MSShapeGroup" points="128.65302 122 150.392719 139.591642 130.940706 147.882837 109 155.760069 119.238715 138.02716 "></polygon>
            <polygon id="poly-39" stroke="#000000" fill="#000000" sketch:type="MSShapeGroup" points="220 196.291897 227.150514 188 231.249374 199.529097 229.402357 228.205652 221.533558 228.205652 "></polygon>
            <polygon id="poly-40" stroke="#000000" fill="#000000" sketch:type="MSShapeGroup" points="207.139966 193.64788 207.139966 225.263638 196.690404 231.444257 194 208.149915 199.209319 188 "></polygon>
            <path d="M336.490852,117 C336.490852,117 340.504696,144.42569 342.511619,158.138536 C346.778088,187.290354 355.311027,245.59399 355.311027,245.59399 L275.729053,239.195496 L267,187.429822 L291.638138,135.225588 L336.490852,117 Z" id="poly-41" stroke="#BEA300" fill="#BFA400" sketch:type="MSShapeGroup"></path>
            <polygon id="poly-42" stroke="#8D1C0D" fill="#E12000" sketch:type="MSShapeGroup" points="182 375.396366 191.027048 351 226.190655 356.03783 226.190655 375.396368 195.856844 398.801756 "></polygon>
            <polygon id="poly-43" stroke="#8D1C0D" fill="#E12000" sketch:type="MSShapeGroup" points="226 355.606065 242.08198 353 247.556965 364.944465 239.703629 377.014032 226 374.824038 "></polygon>
            <polygon id="poly-44" stroke="#000000" fill="#000000" sketch:type="MSShapeGroup" points="435 273.90746 447.59317 275.45648 458.020944 272 454.132229 277.850293 440.756115 277.850293 "></polygon>
            <polygon id="poly-45" stroke="#B7B7B7" fill="#B7B7B7" sketch:type="MSShapeGroup" points="304.456457 236 299.80799 248.695782 249.824674 250.979954 181.617176 253.396257 162 254.835638 "></polygon>
            <polygon id="poly-46" stroke="#151515" fill="#D0011B" sketch:type="MSShapeGroup" points="280 195.627736 283.786807 194 290.952783 205.95079 286.837056 205.95079 281.86248 199.975395 "></polygon>
            <polygon id="poly-47" stroke="#151515" fill="#417505" sketch:type="MSShapeGroup" points="329 185.562838 332.386901 180 337.173823 185.562838 337.173823 188.808472 332.386901 190.027869 "></polygon>
            <polygon id="poly-48" stroke="#FDD800" fill="#FDD800" sketch:type="MSShapeGroup" points="364.186756 136 327.01589 160.809627 307.283451 226.172101 287 197.761212 314.876744 139.972352 "></polygon>
            <polygon id="poly-49" stroke="#151515" fill="#407305" sketch:type="MSShapeGroup" points="283 206.391001 293.268233 204 296.473103 208.316735 286.49162 212.633469 283 210.578417 "></polygon>
            <polygon id="poly-50" stroke="#BFA400" fill="#BFA400" sketch:type="MSShapeGroup" points="355.215235 245.184604 394.117855 342.577501 340.427854 361.74487 293 267.02551 302.506374 241 "></polygon>
            <polygon id="poly-51" stroke="#FDD800" fill="#FDD800" sketch:type="MSShapeGroup" points="320.554515 182 389.560419 384.776883 350.99656 426.279945 367.33015 377.643237 308 226.695281 "></polygon>
            <polygon id="poly-52" stroke="#129406" fill="#0FA801" sketch:type="MSShapeGroup" points="86 421.720711 116.91153 388 123.342354 427.062863 90.1143217 479.517302 "></polygon>
            <polygon id="poly-53" stroke="#E5E5E5" fill="#FFFFFF" sketch:type="MSShapeGroup" points="201 203.799225 203.623987 202 205.228179 212.152971 201 212.152971 "></polygon>
            <polygon id="poly-54" stroke="#FDD800" fill="#FDD800" sketch:type="MSShapeGroup" points="321.829196 413.063462 304 387 335.210933 400.844194 357.864301 403.722954 348.477406 428.112293 "></polygon>
            <polygon id="poly-55" stroke="#E4E4E4" fill="#FFFFFF" sketch:type="MSShapeGroup" points="226.732457 201 228.464914 201.77451 228.464914 209.386076 225 209.386076 225 201.77451 "></polygon>
            <polygon id="poly-56" stroke="#151515" fill="#48FF0B" sketch:type="MSShapeGroup" points="339.505091 175 342.430237 175 337.409275 185.029274 335 180.068754 "></polygon>
            <polygon id="poly-57" stroke="#000000" fill="#000000" sketch:type="MSShapeGroup" points="426 229.620115 434.677044 221 445.868786 226.716757 442.364514 238.240231 429.754477 238.240231 "></polygon>
            <polygon id="poly-58" stroke="#FFDDDD" fill="#FFDFDF" sketch:type="MSShapeGroup" points="434.97415 227 439.679036 228.645027 439.679036 233.687245 434.97415 235.267989 432 231.133995 "></polygon>
            <polygon id="poly-59" stroke="#1C1C5C" fill="#30319F" sketch:type="MSShapeGroup" points="141.824637 153.664748 175.051264 148 204.682252 159.765245 175.051264 179.80552 133 211.61104 "></polygon>
            <polygon id="poly-60" stroke="#242478" fill="#1C1C5C" sketch:type="MSShapeGroup" points="141.468263 154 133.23962 211.507732 91 256.907241 96.3498833 198.553311 115.999389 170.018726 "></polygon>
        </g>
    </g>
</svg>