<?xml version="1.0" encoding="UTF-8" standalone="no"?>
<svg width="600px" height="600px" viewBox="0 0 600 600" version="1.1" xmlns="http://www.w3.org/2000/svg" xmlns:xlink="http://www.w3.org/1999/xlink" xmlns:sketch="http://www.bohemiancoding.com/sketch/ns">
    <!-- Generator: Sketch 3.4 (15588) - http://www.bohemiancoding.com/sketch -->
    <title>hogswatch</title>
    <desc>Created with Sketch.</desc>
    <defs></defs>
    <g id="Page-1" stroke="none" stroke-width="1" fill="none" fill-rule="evenodd" sketch:type="MSPage">
        <g id="hogswatch" sketch:type="MSArtboardGroup">
            <polygon id="poly-01" stroke="#6A0000" fill="#BE0808" sketch:type="MSShapeGroup" points="269.999999 292.980469 394.218751 292.980469 452.062501 521.382812 283.535157 509.527344 251.331498 388.935182 "></polygon>
            <polygon id="poly-02" stroke="#979797" fill="#551313" sketch:type="MSShapeGroup" points="279.334773 117 378.984274 143.256657 337.749538 279.094707 285.982184 299.691926 240 221.787018 "></polygon>
            <polygon id="poly-03" stroke="#979797" fill="#E7E7E7" sketch:type="MSShapeGroup" points="266.052158 393 292.732096 448.696059 286.50072 509.214707 240.724609 558.761719 245.333396 472.458408 "></polygon>
            <polygon id="poly-04" stroke="#979797" fill="#E7E7E7" sketch:type="MSShapeGroup" points="416.740234 352.611328 449.583984 392.302734 457.394531 536.748047 421.310547 473.189453 421.310547 401.5 "></polygon>
            <polygon id="poly-05" stroke="#979797" fill="#E7E7E7" sketch:type="MSShapeGroup" points="421.132813 473.080078 457.869139 537.705078 415.220703 569.246094 380.919922 519.705078 407.330078 512.859375 "></polygon>
            <polygon id="poly-06" stroke="#510500" fill="#741306" sketch:type="MSShapeGroup" points="267.353996 386 260.138392 423.118382 244.765483 436.020314 227 426.97152 235.588955 392.518797 "></polygon>
            <polygon id="poly-07" stroke="#730000" fill="#E00B0B" sketch:type="MSShapeGroup" points="163.569132 419.54834 182.119514 416 157.039764 507.962606 143.746704 480.921932 141 449.333956 "></polygon>
            <polygon id="poly-08" stroke="#6A0000" fill="#BE0808" sketch:type="MSShapeGroup" points="199.864712 295 233.677007 338.061939 228.374759 362.550593 199.864712 387.207031 180 418.062553 "></polygon>
            <polygon id="poly-09" stroke="#6A0000" fill="#BE0808" sketch:type="MSShapeGroup" points="229.311682 291 248.861026 321.80572 236.448884 327.295604 234.331156 338.492078 200 295.194934 "></polygon>
            <polygon id="poly-10" stroke="#6A0000" fill="#BE0808" sketch:type="MSShapeGroup" points="180.982406 416.199568 163.061 420.688729 142 447.828066 188.373312 307.00091 200.707933 296 "></polygon>
            <polygon id="poly-11" stroke="#979797" fill="#E7E7E7" sketch:type="MSShapeGroup" points="207 195 251.467885 195 254.644477 245.806094 251.467885 279.453657 208.43544 219.622404 "></polygon>
            <polygon id="poly-12" stroke="#979797" fill="#E7E7E7" sketch:type="MSShapeGroup" points="395.727124 202 390.903216 244.491985 376.9618 284.767579 368.746354 299.512393 347 251.571046 "></polygon>
            <polygon id="poly-13" stroke="#D7D7D7" fill="#FFFFFF" sketch:type="MSShapeGroup" points="325.873241 235 346.265624 251.56623 366.413111 271.314984 334.716782 278.893526 321 243.470912 "></polygon>
            <polygon id="poly-14" stroke="#D7D7D7" fill="#FFFFFF" sketch:type="MSShapeGroup" points="334.970959 278.666634 366.530745 271 369.37435 310.68714 355.903344 322.912527 324 301.304477 "></polygon>
            <polygon id="poly-15" stroke="#979797" fill="#E5E0C3" sketch:type="MSShapeGroup" points="267.647443 227 278.186752 243.466129 281.922287 252.54003 268.2011 253.113508 264 243.466129 "></polygon>
            <polygon id="poly-16" stroke="#979797" fill="#E5E0C3" sketch:type="MSShapeGroup" points="283.054206 256 290.539811 265.387508 288.554221 269.480696 275.98043 269.931726 272 256.769482 "></polygon>
            <polygon id="poly-17" stroke="#979797" fill="#E5E0C3" sketch:type="MSShapeGroup" points="289.901219 271 299.146291 279.80434 287.378101 279.225577 282.068805 283.034668 277 272.538965 "></polygon>
            <polygon id="poly-18" stroke="#979797" fill="#E5E0C3" sketch:type="MSShapeGroup" points="300.196223 279.338115 320.657758 278 309.618087 289.397324 306.990748 286.544029 293 279.338115 "></polygon>
            <polygon id="poly-19" stroke="#979797" fill="#E7E7E7" sketch:type="MSShapeGroup" points="180.824283 416 216.904945 470.569378 243.681641 502.917969 241.398438 559.087891 156 507.236729 "></polygon>
            <polygon id="poly-20" stroke="#6A0000" fill="#BF0808" sketch:type="MSShapeGroup" points="210 127.913355 241.001284 126 223.883276 148.029879 217.431429 156.051654 213.287588 141.025827 "></polygon>
            <polygon id="poly-21" stroke="#979797" fill="#E5E0C3" sketch:type="MSShapeGroup" points="320.842015 278 334.603801 278.980462 323.858356 301.682173 314.29995 295.8386 300 294.711024 "></polygon>
            <polygon id="poly-22" stroke="#979797" fill="#E5E0C3" sketch:type="MSShapeGroup" points="284 285 290.578699 285 307.608616 288.906874 303.907437 292.412048 291.867923 291.142204 "></polygon>
            <polygon id="poly-23" stroke="#000000" fill="#3A3832" sketch:type="MSShapeGroup" points="277 216 326.920819 224.010192 325.107008 231.843319 301.960409 241.344025 278.713435 230.147551 "></polygon>
            <polygon id="poly-24" stroke="#000000" fill="#3A3832" sketch:type="MSShapeGroup" points="275 207 326.442117 213.196381 326.442118 224.450409 302.342829 229.872168 276.714375 216.186218 "></polygon>
            <polygon id="poly-25" stroke="#979797" fill="#E5E0C3" sketch:type="MSShapeGroup" points="325.341486 214.283498 330.14705 213 330.147049 227.950949 324 230.852694 325.341486 220.857763 "></polygon>
            <polygon id="poly-26" stroke="#979797" fill="#E5E0C3" sketch:type="MSShapeGroup" points="268.107723 203 276.598015 206.706024 280.108476 230.569225 264.970772 223.579137 264 212.010034 "></polygon>
            <polygon id="poly-27" stroke="#979797" fill="#E5E0C3" sketch:type="MSShapeGroup" points="301.706993 240.980585 329.541375 229.049425 318.324639 248.353873 279.030389 244.971146 265 224 "></polygon>
            <polygon id="poly-28" stroke="#979797" fill="#E5E0C3" sketch:type="MSShapeGroup" points="318.128638 248.461129 314.628749 266.586908 300.110331 263.265845 286.02004 266.586908 279 245 "></polygon>
            <polygon id="poly-29" stroke="#979797" fill="#E5E0C3" sketch:type="MSShapeGroup" points="270.592543 192 335.156821 199.824318 330.702458 212.784391 304.273581 221.49139 268 202.59789 "></polygon>
            <polygon id="poly-30" stroke="#979797" fill="#E5E0C3" sketch:type="MSShapeGroup" points="327.706614 169 344.882764 173.607204 346.746787 191.274905 339.392879 200.235608 283 193.665718 "></polygon>
            <polygon id="poly-31" stroke="#D7D7D7" fill="#FFFFFF" sketch:type="MSShapeGroup" points="260.437016 236 273.355069 258.110174 269.943271 301.415246 252.511656 277.619876 251 254.075947 "></polygon>
            <polygon id="poly-32" stroke="#D7D7D7" fill="#FFFFFF" sketch:type="MSShapeGroup" points="273.291992 258 284.841715 286.167369 307.97183 337.962734 275.329557 322.240101 270 302.06002 "></polygon>
            <polygon id="poly-33" stroke="#D7D7D7" fill="#FFFFFF" sketch:type="MSShapeGroup" points="284 285 300.245898 295.225702 315.255869 295.225702 356.060895 322.932351 307.079183 338.550155 "></polygon>
            <polygon id="poly-34" stroke="#D6D6D6" fill="#FFFFFF" sketch:type="MSShapeGroup" points="263.628439 217 264.755135 223.373445 260.61746 237.059395 254 250.128702 256.284819 226.647819 "></polygon>
            <polygon id="poly-35" stroke="#979797" fill="#BE0808" sketch:type="MSShapeGroup" points="216.807567 459.927734 251.748047 452.625 244.140625 504.033203 229.316406 486.164062 216.807567 472.101562 "></polygon>
            <polygon id="poly-36" stroke="#979797" fill="#E5E0C3" sketch:type="MSShapeGroup" points="310.66839 101 331.942572 108.412048 347.786772 135.609526 343.470712 173.69868 275 149.237335 "></polygon>
            <polygon id="poly-37" stroke="#979797" fill="#E5E0C3" sketch:type="MSShapeGroup" points="274.807394 148 329.024404 168.019754 283.043982 193.883521 264.865349 191.059296 259 178.455274 "></polygon>
            <polygon id="poly-38" stroke="#000000" fill="#3A3832" sketch:type="MSShapeGroup" points="307.908886 176 315.569354 176 315.569354 199.7848 307.908886 208.588699 300 197.941918 "></polygon>
            <polygon id="poly-39" stroke="#000000" fill="#275EAF" sketch:type="MSShapeGroup" points="322.345926 156 341.647376 166.734241 336.131591 182.366523 322.345926 182.366523 318 166.734241 "></polygon>
            <polygon id="poly-40" stroke="#000000" fill="#275EAF" sketch:type="MSShapeGroup" points="299.686138 152 304.843034 162.255653 299.686137 176.237592 276 176.237592 278.038445 158.647411 "></polygon>
            <polygon id="poly-41" stroke="#979797" fill="#E7E7E7" sketch:type="MSShapeGroup" points="270.208703 90 275.335649 148.059577 251.568379 194.260642 208 194.260641 217.17741 157.138323 "></polygon>
            <polygon id="poly-42" stroke="#979797" fill="#E7E7E7" sketch:type="MSShapeGroup" points="297.337277 54.6294429 334.26829 29 330.679428 73.6484734 274.658297 150.316573 270 91.1911447 "></polygon>
            <polygon id="poly-43" stroke="#979797" fill="#E7E7E7" sketch:type="MSShapeGroup" points="334.314739 27 361.314891 44.1567688 391.963807 154.963984 346.177187 119.492919 330 75.2760958 "></polygon>
            <polygon id="poly-44" stroke="#979797" fill="#E7E7E7" sketch:type="MSShapeGroup" points="346 119 391.962804 155.117659 395.158776 203.236951 346 251.768513 352.726694 174.413298 "></polygon>
            <polygon id="poly-45" stroke="#979797" fill="#551414" sketch:type="MSShapeGroup" points="329.919212 75 346.62859 120.138264 348.622991 137.036043 329.919212 108.020349 310 100.548398 "></polygon>
            <polygon id="poly-46" stroke="#1D1D1D" fill="#3C2096" sketch:type="MSShapeGroup" points="198.378945 162 209.182529 193.529835 221.51715 219.589166 187 208.566469 187 178.765641 "></polygon>
            <polygon id="poly-47" stroke="#1D1D1D" fill="#211C47" sketch:type="MSShapeGroup" points="187 209 222.627181 219.451217 241.647976 250.158274 248.801911 321.006145 210.588548 266.020974 "></polygon>
            <polygon id="poly-48" stroke="#1D1D1D" fill="#4D4174" sketch:type="MSShapeGroup" points="241 249 269.61928 298.35434 276.707151 331.041702 263.824598 320.511202 248.353908 320.511202 "></polygon>
            <polygon id="poly-49" stroke="#979797" fill="#E7E7E7" sketch:type="MSShapeGroup" points="228.922691 362 235.316397 391.901898 216.353745 471.218038 180 416.069897 199.903473 385.568094 "></polygon>
            <polygon id="poly-50" stroke="#520500" fill="#A01300" sketch:type="MSShapeGroup" points="273 310 296.682173 324.353246 294.689094 349.893275 283.908854 338.701646 276.447915 327.961047 "></polygon>
            <polygon id="poly-51" stroke="#510500" fill="#741306" sketch:type="MSShapeGroup" points="280.515894 336.039764 288.001059 347.883273 236 326.623186 247.455905 320.686676 264.064301 320 "></polygon>
            <polygon id="poly-52" stroke="#070706" fill="#3A3932" sketch:type="MSShapeGroup" points="303.59961 352.392578 288.05664 347.328125 281.644531 336.806641 277.538378 331.306641 "></polygon>
            <polygon id="poly-53" stroke="#510500" fill="#741306" sketch:type="MSShapeGroup" points="235.382695 327 288.320612 348.201506 282.192942 381.182654 236.990812 395.374251 229 360.51058 "></polygon>
            <polygon id="poly-54" stroke="#510500" fill="#741306" sketch:type="MSShapeGroup" points="408.978516 330.523438 432.933594 318.089844 421.802734 366.78125 401.435547 363.955078 376.220703 349.566406 "></polygon>
            <polygon id="poly-55" stroke="#510500" fill="#741306" sketch:type="MSShapeGroup" points="401.783096 363.869141 420.972656 366.890625 420.972656 401.105469 401.783096 403.908203 399.648437 385.333757 "></polygon>
            <polygon id="poly-56" stroke="#979797" fill="#E7E7E7" sketch:type="MSShapeGroup" points="226.95998 426.393298 244.608301 436.981938 261.118475 423 261.118475 451.451906 219 461.941883 "></polygon>
            <polygon id="poly-57" stroke="#EFCD4A" fill="#EFCD49" sketch:type="MSShapeGroup" points="300.462891 361.105469 400.4729 364.217041 406.507812 512.964844 298.408203 558.945312 298.408203 401.753906 "></polygon>
            <polygon id="poly-58" stroke="#EFCD4A" fill="#EFCD49" sketch:type="MSShapeGroup" points="309.640137 338.42627 374.026123 349.749756 399.142578 363.342041 300.113281 360.845703 302.244141 348.965558 "></polygon>
            <polygon id="poly-59" stroke="#8E7516" fill="#EFCD4A" sketch:type="MSShapeGroup" points="421.902343 294.867188 437.662108 300 445.531249 309.669922 320.486816 341.048584 311.064453 337.820312 "></polygon>
            <polygon id="poly-60" stroke="#8E7516" fill="#EFCD4A" sketch:type="MSShapeGroup" points="443.142578 310.300781 371.710937 352.994141 332.474609 383.230469 329.888672 360.732422 319.998047 341.015625 "></polygon>
        </g>
    </g>
</svg>