<?xml version="1.0" encoding="UTF-8" standalone="no"?>
<svg width="600px" height="600px" viewBox="0 0 600 600" version="1.1" xmlns="http://www.w3.org/2000/svg" xmlns:xlink="http://www.w3.org/1999/xlink" xmlns:sketch="http://www.bohemiancoding.com/sketch/ns">
    <!-- Generator: Sketch 3.4 (15588) - http://www.bohemiancoding.com/sketch -->
    <title>robanukah</title>
    <desc>Created with Sketch.</desc>
    <defs></defs>
    <g id="Page-1" stroke="none" stroke-width="1" fill="none" fill-rule="evenodd" sketch:type="MSPage">
        <g id="robanukah" sketch:type="MSArtboardGroup">
            <polygon id="poly-01" stroke="#83999E" fill="#839B9E" sketch:type="MSShapeGroup" points="289.227667 291.413811 287.643804 436.320351 264.905618 443.80663 225.68732 448.543102 196.161855 446.363963 "></polygon>
            <polygon id="poly-02" stroke="#83999E" fill="#8FADAD" sketch:type="MSShapeGroup" points="187.687478 271.743708 156.322202 307.761182 195.749624 446.180083 289.074505 289.943621 254.349222 264.397885 "></polygon>
            <polygon id="poly-03" stroke="#31484E" fill="#748888" sketch:type="MSShapeGroup" points="196.957926 319.737975 240.952492 309.959151 279.720553 312.407759 282.013099 412.213881 213.787617 421.883462 "></polygon>
            <polygon id="poly-04" stroke="#667F82" fill="#91ABAC" sketch:type="MSShapeGroup" points="175.094008 154.80457 254.994464 269.714341 220.690547 269.714341 187.685064 275.864732 171.098829 196.697766 "></polygon>
            <polygon id="poly-05" stroke="#667F82" fill="#91ABAC" sketch:type="MSShapeGroup" points="199.992323 133.871015 226.323049 137.969195 248.799051 169.231469 254.845073 269.323427 174.048623 154.633811 "></polygon>
            <polygon id="poly-06" stroke="#839B9E" fill="#91ABAC" sketch:type="MSShapeGroup" points="209.526779 135.099248 189.569613 140.882894 193.251108 101.854991 196.760935 101.854991 "></polygon>
            <polygon id="poly-07" stroke="#748888" fill="#748888" sketch:type="MSShapeGroup" points="196.750069 92.0039062 200.659414 96.7637873 196.750069 102.669161 190.800998 100.915028 190.800998 93.6722055 "></polygon>
            <polygon id="poly-08" stroke="#566D74" fill="#ABC9C7" sketch:type="MSShapeGroup" points="178.487143 183.008625 191.271715 170.990316 250.484635 167.118426 259.797071 177.3459 178.487143 211.661153 "></polygon>
            <polygon id="poly-09" stroke="#566D74" fill="#ABC9C7" sketch:type="MSShapeGroup" points="178.487143 211.462093 260.025466 176.96951 261.30283 195.175472 255.805232 211.462093 187.400224 220.059699 "></polygon>
            <polygon id="poly-10" stroke="#222222" fill="#212121" sketch:type="MSShapeGroup" points="240.553165 169.581197 257.173161 175.515657 186.308365 204.31613 184.64407 181.827356 193.466237 174.202183 "></polygon>
            <polygon id="poly-11" stroke="#222222" fill="#212121" sketch:type="MSShapeGroup" points="257.564005 194.437824 251.337145 201.593252 197.215736 208.766627 187.106842 204.476492 257.564005 175.738125 "></polygon>
            <polygon id="poly-12" stroke="#F7FB9B" fill="#F5F6A0" sketch:type="MSShapeGroup" points="199.335183 179.663667 217.485155 182.115396 217.485155 201.778153 199.335183 203.878196 190.338227 191.770931 "></polygon>
            <polygon id="poly-13" stroke="#FDD800" fill="#FDD800" sketch:type="MSShapeGroup" points="345.727876 341 348.424502 355.925797 345.727876 360.161701 342 356.929961 345.727876 350.580851 "></polygon>
            <polygon id="poly-14" stroke="#7C510E" fill="#875A0E" sketch:type="MSShapeGroup" points="473 445.642329 473 389.352163 495.257703 376 502.778764 386.371939 502.778764 445.642329 "></polygon>
            <polygon id="poly-15" stroke="#F7FB9B" fill="#F5F6A0" sketch:type="MSShapeGroup" points="226.558553 178.613986 246.51572 176.738125 246.51572 197.75495 230.917356 202.027919 222.354252 192.283428 "></polygon>
            <polygon id="poly-16" stroke="#222222" fill="#212121" sketch:type="MSShapeGroup" points="209.136232 184.001708 206.346239 184.001708 206.346239 180.457548 206.346239 178.200896 209.136232 178.200896 "></polygon>
            <polygon id="poly-17" stroke="#222222" fill="#212121" sketch:type="MSShapeGroup" points="234.668107 174.275353 238.385496 174.275353 238.385496 179.867824 234.668107 179.867824 234.668107 177.263154 "></polygon>
            <polygon id="poly-18" stroke="#191919" fill="#1D1D1D" sketch:type="MSShapeGroup" points="250.181022 229.919089 250.181022 255.172989 199.446933 262.276917 193.263769 252.463759 197.327615 240.409555 "></polygon>
            <path d="M515,362 L526.957854,362 L526.957854,369.534082 L526.957854,381.654292 L534.961357,395.96849 L516.791874,385.23325 L515,362 Z" id="poly-19" stroke="#49431B" fill="#795814" sketch:type="MSShapeGroup"></path>
            <polygon id="poly-20" stroke="#735B01" fill="#9A6C06" sketch:type="MSShapeGroup" points="368 394.192866 390.509459 378 397.343722 392.399037 397.343722 446.039272 368 446.039272 "></polygon>
            <polygon id="poly-21" stroke="#324D55" fill="#798C91" sketch:type="MSShapeGroup" points="290.543229 294.810236 311.185506 285.33144 317.958583 302.521243 298.685747 315.034658 289.026845 321.164279 "></polygon>
            <polygon id="poly-22" stroke="#6C5621" fill="#544417" sketch:type="MSShapeGroup" points="342 383.96165 342 367 353.277377 367 353.277377 383.96165 360.381303 399.788158 "></polygon>
            <polygon id="poly-23" stroke="#324D55" fill="#798C91" sketch:type="MSShapeGroup" points="336.715077 266.860656 340.74459 273.983311 346.401716 281.523043 317.196444 303.252678 311.470771 285.056667 "></polygon>
            <polygon id="poly-24" stroke="#4A5416" fill="#707D26" sketch:type="MSShapeGroup" points="565.686073 403.0689 565.686073 445.30266 545.75421 445.30266 542 403.0689 548.002101 386 "></polygon>
            <polygon id="poly-25" stroke="#324D55" fill="#798C91" sketch:type="MSShapeGroup" points="369.676541 237.307403 380.880208 250.767722 363.053283 266.533072 346.042561 280.299273 337.33588 266.533072 "></polygon>
            <polygon id="poly-26" stroke="#4A5416" fill="#707D26" sketch:type="MSShapeGroup" points="547 385.039323 547 371 558.327939 371 558.327939 385.039323 564.540714 400.663669 "></polygon>
            <polygon id="poly-27" stroke="#334E56" fill="#92A6A4" sketch:type="MSShapeGroup" points="388.130688 230.85487 401.054155 241.487352 381.009594 253.731951 366.889134 236.485575 374.306745 217.605234 "></polygon>
            <polygon id="poly-28" stroke="#1D1D1D" fill="#E2E3BF" sketch:type="MSShapeGroup" points="227.261306 245.927102 228.290532 257.915759 217.295987 259.183761 215.428709 247.481476 221.157538 245.927102 "></polygon>
            <polygon id="poly-29" stroke="#FDD800" fill="#FDD800" sketch:type="MSShapeGroup" points="418.945417 336 419.794938 344.33489 420.890834 347.835638 419.387516 351.97042 417 347.289856 "></polygon>
            <polygon id="poly-30" stroke="#334E56" fill="#92A6A4" sketch:type="MSShapeGroup" points="399.256738 197.903065 406.873328 197.903065 409.382799 207.951096 390.133372 231.127815 375.508833 218.240242 "></polygon>
            <polygon id="poly-31" stroke="#1D1D1D" fill="#E2E3BF" sketch:type="MSShapeGroup" points="219.611884 231.150475 224.788059 231.150475 226.214463 243.034962 215.70605 243.859747 214.197324 232.822286 "></polygon>
            <polygon id="poly-32" stroke="#334E56" fill="#92A6A4" sketch:type="MSShapeGroup" points="411.632356 215.142463 420.090898 216.870846 418.769836 226.355494 401.25369 241.602822 390.28546 231.770054 "></polygon>
            <polygon id="poly-33" stroke="#6C5621" fill="#544417" sketch:type="MSShapeGroup" points="337 392.422823 341.093395 383 363.190986 401.021813 363.190986 444.498914 337 444.498914 "></polygon>
            <polygon id="poly-34" stroke="#4C646B" fill="#798C91" sketch:type="MSShapeGroup" points="157.754613 338.704151 151.39666 333.0594 151.39666 309.959151 157.754613 309.959151 165.13633 342.229584 "></polygon>
            <polygon id="poly-35" stroke="#4C646B" fill="#798C91" sketch:type="MSShapeGroup" points="121.843407 323.097747 128.947334 305.033609 151.874355 312.215567 151.874355 333.592895 143.919891 333.592895 "></polygon>
            <polygon id="poly-36" stroke="#FDD800" fill="#FDD800" sketch:type="MSShapeGroup" points="518.290547 347.154123 520.525898 335 523.243927 350.498385 520.525898 356.764811 515 350.498385 "></polygon>
            <polygon id="poly-37" stroke="#4C646B" fill="#798C91" sketch:type="MSShapeGroup" points="92.2901531 307.781147 101.911355 290.256982 129.054949 304.398676 121.961254 323.016167 106.938102 316.734406 "></polygon>
            <polygon id="poly-38" stroke="#4C646B" fill="#798C91" sketch:type="MSShapeGroup" points="72.4424786 272.961065 101.355082 291.241296 91.9955345 307.638278 69.3132796 294.476845 60.8657708 285.421629 "></polygon>
            <polygon id="poly-39" stroke="#1D1D1D" fill="#E2E3BF" sketch:type="MSShapeGroup" points="240.056421 245.624283 245.846699 244.695716 251.01156 244.695716 251.01156 256.585275 240.681838 257.131491 "></polygon>
            <polygon id="poly-40" stroke="#1D1D1D" fill="#E2E3BF" sketch:type="MSShapeGroup" points="239.582574 245.927102 239.582574 257.408169 228.66606 258.673439 227.742565 247.225535 233.66257 245.927102 "></polygon>
            <polygon id="poly-41" stroke="#334E56" fill="#92A6A4" sketch:type="MSShapeGroup" points="73.9515781 271.266895 60.4522434 284.980034 31.9522605 271.266895 48.2794328 265.478567 63.1302617 247.158487 "></polygon>
            <polygon id="poly-42" stroke="#334E56" fill="#92A6A4" sketch:type="MSShapeGroup" points="18.4070193 249.858118 21.0132493 242.232945 29.9587044 244.383475 48.0298659 265.807621 33.189181 270.352137 "></polygon>
            <polygon id="poly-43" stroke="#334E56" fill="#92A6A4" sketch:type="MSShapeGroup" points="31.9522605 236.076017 40.5153645 236.076017 59.6274574 251.405175 48.3036224 264.979419 31.9522605 244.089784 "></polygon>
            <polygon id="poly-44" stroke="#FDD800" fill="#FDD800" sketch:type="MSShapeGroup" points="490.117404 344.111527 490.117404 338 492.681074 348.214018 490.117404 352.006711 487 348.214018 "></polygon>
            <polygon id="poly-45" stroke="#FDD800" fill="#FDD800" sketch:type="MSShapeGroup" points="552.609067 346 552.609067 358.851942 556.080925 361.998708 552.609067 366.385438 549 361.998708 "></polygon>
            <polygon id="poly-46" stroke="#1D1D1D" fill="#E2E3BF" sketch:type="MSShapeGroup" points="231.460519 229.919089 237.641244 230.500614 237.641244 242.623485 227.125028 242.623485 225.279794 230.765529 "></polygon>
            <polygon id="poly-47" stroke="#1D1D1D" fill="#E2E3BF" sketch:type="MSShapeGroup" points="196.753367 239.867595 201.749682 237.307403 203.055138 246.946552 198.320617 250.203559 194.495155 246.946552 "></polygon>
            <polygon id="poly-48" stroke="#511D1F" fill="#5F1B23" sketch:type="MSShapeGroup" points="459.522451 362 469.558959 376.027933 469.558959 445.70443 438 445.70443 438 380.253397 "></polygon>
            <polygon id="poly-49" stroke="#1D1D1D" fill="#E2E3BF" sketch:type="MSShapeGroup" points="207.974615 233.659225 213.231553 232.381861 214.499554 244.244108 203.114854 246.893255 203.114854 236.78436 "></polygon>
            <polygon id="poly-50" stroke="#7C510E" fill="#875A0E" sketch:type="MSShapeGroup" points="485.974857 357 495.775409 357 495.77541 376.71705 476 387.112299 485.974857 374.194184 "></polygon>
            <polygon id="poly-51" stroke="#511D1F" fill="#5F1B23" sketch:type="MSShapeGroup" points="458.609532 335 458.609532 362.679223 439 379.049999 446.554768 365.679223 446.554768 335 "></polygon>
            <polygon id="poly-52" stroke="#735B01" fill="#9A6C06" sketch:type="MSShapeGroup" points="378.136228 380.306548 378.136228 362 390.186778 362 390.186778 378.299167 370 391.981622 "></polygon>
            <polygon id="poly-53" stroke="#1D1D1D" fill="#E2E3BF" sketch:type="MSShapeGroup" points="194.495155 254.600465 203.767949 250.852644 206.321118 261.123063 198.551198 261.123063 "></polygon>
            <polygon id="poly-54" stroke="#FDD800" fill="#FDD800" sketch:type="MSShapeGroup" points="381 350.955337 383.531002 347.687362 384.572314 338 386.803582 350.955337 384.572314 355.828448 "></polygon>
            <polygon id="poly-55" stroke="#1D1D1D" fill="#E2E3BF" sketch:type="MSShapeGroup" points="209.565722 248.270817 214.678693 247.158487 216.801912 258.960651 206.830741 260.741705 204.346239 250.507961 "></polygon>
            <polygon id="poly-56" stroke="#1D1D1D" fill="#E2E3BF" sketch:type="MSShapeGroup" points="238.679687 230.967773 249.701172 229.771484 249.701172 241.770508 238.679687 242.869141 "></polygon>
            <polygon id="poly-57" stroke="#49431B" fill="#795814" sketch:type="MSShapeGroup" points="510 393.340202 516.628465 386 536.073009 396.889895 536.073009 446.380595 510 446.380595 "></polygon>
            <polygon id="poly-58" stroke="#FDD800" fill="#FDD800" sketch:type="MSShapeGroup" points="451.947301 311 452.952904 320.132438 455.090249 325.084161 451.947301 329.023234 449 323.886019 "></polygon>
            <polygon id="poly-59" stroke="#545116" fill="#5C7004" sketch:type="MSShapeGroup" points="402 388.696479 421.888675 373 431.910435 385.611852 429.517179 445.214433 402 445.214433 "></polygon>
            <polygon id="poly-60" stroke="#545116" fill="#5C7004" sketch:type="MSShapeGroup" points="422.502088 359 422.502088 376.323264 403 388.580146 411.650273 376.323264 411.650273 359 "></polygon>
        </g>
    </g>
</svg>