<?xml version="1.0" encoding="UTF-8" standalone="no"?>
<svg width="600px" height="600px" viewBox="0 0 600 600" version="1.1" xmlns="http://www.w3.org/2000/svg" xmlns:xlink="http://www.w3.org/1999/xlink" xmlns:sketch="http://www.bohemiancoding.com/sketch/ns">
    <!-- Generator: Sketch 3.4 (15588) - http://www.bohemiancoding.com/sketch -->
    <title>winterveil</title>
    <desc>Created with Sketch.</desc>
    <defs></defs>
    <g id="Page-1" stroke="none" stroke-width="1" fill="none" fill-rule="evenodd" sketch:type="MSPage">
        <g id="winterveil" sketch:type="MSArtboardGroup">
            <polygon id="poly-01" stroke="#83999E" fill="#EBD5C8" sketch:type="MSShapeGroup" points="496.320312 242.777344 519.839844 254.310547 512.714844 303.164063 462.632812 326.074219 364.332031 311.117188 "></polygon>
            <polygon id="poly-02" stroke="#2B0805" fill="#5A120F" sketch:type="MSShapeGroup" points="222.123047 292.507812 116.306641 326.005859 178.179688 472.636719 392.089844 480.527344 462.560547 326.005859 "></polygon>
            <polygon id="poly-03" stroke="#31484E" fill="#EBD5C8" sketch:type="MSShapeGroup" points="88.7929688 236.125 210.089844 296.207031 150.265625 324.855469 101.361328 324.855469 64.7119141 265.753906 "></polygon>
            <polygon id="poly-04" stroke="#5F1716" fill="#AE2625" sketch:type="MSShapeGroup" points="80.328125 251.558594 186.402344 216.238281 219.841797 295.232422 118.535156 309.792969 88.84375 282.101562 "></polygon>
            <polygon id="poly-05" stroke="#5F1716" fill="#AE2625" sketch:type="MSShapeGroup" points="399.769531 214.179688 504.453125 268.820312 470.984375 305.304688 364 309.726204 364 261.952946 "></polygon>
            <polygon id="poly-06" stroke="#E7E7E7" fill="#E7E7E7" sketch:type="MSShapeGroup" points="333.625 109.861328 368.966797 251.160156 218 253.355469 257.869141 109.861328 293.483398 95 "></polygon>
            <polygon id="poly-07" stroke="#E7E7E7" fill="#E7E7E7" sketch:type="MSShapeGroup" points="365.748047 240.201416 358.060547 358.603516 228.679688 358.603516 221 303.47876 224.259766 242.375244 "></polygon>
            <polygon id="poly-08" stroke="#AA5447" fill="#5F1716" sketch:type="MSShapeGroup" points="186.832031 217.574219 192.832031 181.359375 234.875 189.835938 225.136719 238.724609 220.351562 296.089844 "></polygon>
            <polygon id="poly-09" stroke="#AA5447" fill="#5F1716" sketch:type="MSShapeGroup" points="359.815689 216.617188 353.777344 185.269531 397.511719 185.269531 404.726562 216.617188 364.425781 265.308594 "></polygon>
            <polygon id="poly-10" stroke="#5F1716" fill="#EC4B3B" sketch:type="MSShapeGroup" points="193.566406 181.167969 187.480469 218.601562 82.0234375 250.210938 114.398438 200.035156 169.570312 181.167969 "></polygon>
            <polygon id="poly-11" stroke="#5F1716" fill="#EC4B3B" sketch:type="MSShapeGroup" points="461.933594 193.867188 497.277344 240.167969 502.640625 269.035156 404.476562 217.341797 397.851562 185.347656 "></polygon>
            <polygon id="poly-12" stroke="#9B9345" fill="#9B9344" sketch:type="MSShapeGroup" points="259.236328 122.457031 270.802734 110 340.736816 189.037109 250.646484 189.037109 255.238281 149.518555 "></polygon>
            <polygon id="poly-13" stroke="#5F1716" fill="#AE2625" sketch:type="MSShapeGroup" points="150.37207 324.796875 193.34668 304.625 194.857422 346.305664 146.742188 383.585938 115.418945 324.796875 "></polygon>
            <polygon id="poly-14" stroke="#5F1716" fill="#AE2625" sketch:type="MSShapeGroup" points="431.461914 396.228516 388 354.287109 388 315.419922 460.807617 326.962891 452.058594 375.241211 "></polygon>
            <polygon id="poly-15" stroke="#9B9345" fill="#9B9344" sketch:type="MSShapeGroup" points="330.189453 117.505859 340.863281 148.003906 341.481446 188.543945 271.681641 109.491211 300 103.849609 "></polygon>
            <polygon id="poly-16" stroke="#545116" fill="#3C3A0E" sketch:type="MSShapeGroup" points="300 167.476562 333.923828 180.5625 322.773438 188.529297 268.864258 188.529297 257.441406 174.87793 "></polygon>
            <polygon id="poly-17" stroke="#831817" fill="#AE2625" sketch:type="MSShapeGroup" points="336.09375 360.047852 386.336914 375.522461 374.762695 420.844727 307.974609 456.94043 290.920898 443.635742 "></polygon>
            <polygon id="poly-18" stroke="#9B9345" fill="#9B9344" sketch:type="MSShapeGroup" points="341.356445 190.06543 327.972656 241.193359 298 247.974609 263.238281 241.193359 250.649414 189.275391 "></polygon>
            <path d="M206.416016,435.851562 L202.675781,402.09375 C202.675781,402.09375 309.494141,451.252311 309.494141,453.763672 C309.494141,457.803742 380.683594,411.658203 380.683594,411.658203 L390.964844,431.982422 L291.257812,483.005859 L206.416016,435.851562 Z" id="poly-19" stroke="#631E1D" fill="#8C1A19" sketch:type="MSShapeGroup"></path>
            <polygon id="poly-20" stroke="#545116" fill="#707D26" sketch:type="MSShapeGroup" points="270.050781 162.142578 287.147461 163.480469 292.995117 184.076172 276.121094 171.750976 256.964844 174.164059 "></polygon>
            <polygon id="poly-21" stroke="#E7E7E7" fill="#E7E7E7" sketch:type="MSShapeGroup" points="258.095703 110.585938 249.876953 141.5 236.873047 190.263672 192.959034 180.482422 171.986328 180.482422 "></polygon>
            <polygon id="poly-22" stroke="#545116" fill="#707D26" sketch:type="MSShapeGroup" points="308.439453 165.080078 327.763672 165.080078 335.578125 180.242188 316.905273 173.1875 300 184.501953 "></polygon>
            <polygon id="poly-23" stroke="#E7E7E7" fill="#E7E7E7" sketch:type="MSShapeGroup" points="333.589844 111 384.300781 155.414062 396.646484 174.085938 420.556641 187.998047 352.824219 185.904297 "></polygon>
            <polygon id="poly-24" stroke="#4A5416" fill="#707D26" sketch:type="MSShapeGroup" points="308.482422 165.459961 300 195.305664 292.375 195.305664 287.495117 163.796875 296.98877 167.394531 "></polygon>
            <polygon id="poly-25" stroke="#E7E7E7" fill="#E7E7E7" sketch:type="MSShapeGroup" points="313.828125 102.828125 303.52832 137.179688 294.17033 141.5 284.367188 124.40918 278.896484 102.828125 "></polygon>
            <polygon id="poly-26" stroke="#631E1D" fill="#8C1A19" sketch:type="MSShapeGroup" points="188.376953 436.503906 183.898438 387.921875 285.455078 454.523438 275.871094 473.697266 212.091797 462.306641 "></polygon>
            <polygon id="poly-27" stroke="#595959" fill="#FCFBC9" sketch:type="MSShapeGroup" points="271.551026 209.093994 271.551026 228.0271 264.4729 219.264404 266.016113 207.835938 272.863525 201.040283 "></polygon>
            <polygon id="poly-28" stroke="#460100" fill="#450000" sketch:type="MSShapeGroup" points="195.517578 373.142578 195.517578 393.726562 186.258789 390.357422 186.25879 428.005859 153.283204 410.072266 "></polygon>
            <polygon id="poly-29" stroke="#EBD5C8" fill="#879B9F" sketch:type="MSShapeGroup" points="285.794938 256.943359 285.794938 270.33489 285.794938 280.050781 283 302.179688 283 277.072266 "></polygon>
            <polygon id="poly-30" stroke="#595959" fill="#FCFBC9" sketch:type="MSShapeGroup" points="320.95166 205.987793 319.295898 198.919922 326.229004 207.636719 326.745605 219.516113 319.295898 230.204102 "></polygon>
            <polygon id="poly-31" stroke="#460100" fill="#450000" sketch:type="MSShapeGroup" points="381.107422 402.885742 387.41456 374.904297 397.314453 391.806786 397.314453 442.703125 378.835938 412.134766 "></polygon>
            <polygon id="poly-32" stroke="#545116" fill="#545116" sketch:type="MSShapeGroup" points="322.747803 227.212646 329.992188 215.021484 327.796875 231.238281 319.55957 240.555664 313.083984 236.804687 "></polygon>
            <polygon id="poly-33" stroke="#B4AC5D" fill="#B4AC5D" sketch:type="MSShapeGroup" points="331.398438 150.236328 331.398438 120.085938 343.462891 150.236328 343.462891 172.189453 341.636719 187.623047 "></polygon>
            <polygon id="poly-34" stroke="#B4AC5D" fill="#B4AC5D" sketch:type="MSShapeGroup" points="252.211914 176.281249 253.678711 145.58252 258.359516 121.742187 267.624023 113.883789 266.624023 144.250976 "></polygon>
            <polygon id="poly-35" stroke="#831817" fill="#AE2625" sketch:type="MSShapeGroup" points="196.136719 373.011719 276.041992 402.041992 302.540039 423.431641 291.431641 443.789062 194.614258 397.444336 "></polygon>
            <polygon id="poly-36" stroke="#EBD5C8" fill="#879B9F" sketch:type="MSShapeGroup" points="338.290547 264.621094 340.525898 240.275391 340.525898 286.816406 338.290547 305.445312 338.290547 277.642578 "></polygon>
            <polygon id="poly-37" stroke="#A2A5A2" fill="#C1B0A5" sketch:type="MSShapeGroup" points="136.142578 437.851562 176.876953 393.441406 176.876953 458.480469 247.359375 475.025391 160.640625 472.240234 "></polygon>
            <polygon id="poly-38" stroke="#C1B0A5" fill="#EBD5C8" sketch:type="MSShapeGroup" points="196.050781 345.294922 240.199219 359.207031 196.050781 372.162109 135.947266 438.005859 146.316406 384.161133 "></polygon>
            <polygon id="poly-39" stroke="#4A5315" fill="#707D26" sketch:type="MSShapeGroup" points="229.052734 179.929688 225.314453 107.978516 243.941406 154.214844 246.703125 166.928566 236.475586 192.863281 "></polygon>
            <polygon id="poly-40" stroke="#4A5315" fill="#707D26" sketch:type="MSShapeGroup" points="364.431641 112.869141 361.193359 179.060547 352 187.798828 344.695312 154.746338 352 128.933594 "></polygon>
            <polygon id="poly-41" stroke="#5F1716" fill="#BC2E22" sketch:type="MSShapeGroup" points="314.351562 321.476807 314.351562 330.150391 284.886719 324.584961 284.886719 315.814453 305.65625 314.259766 "></polygon>
            <polygon id="poly-42" stroke="#3D3A0F" fill="#5E7619" sketch:type="MSShapeGroup" points="241.824219 344.878906 279.041992 336.083984 312.419922 342.040039 334.078125 344.878906 286.363281 361.507812 "></polygon>
            <polygon id="poly-43" stroke="#3D3A0F" fill="#526910" sketch:type="MSShapeGroup" points="242.167969 394.308594 240.015625 344.900391 286.447266 360.355469 286.447266 415.675781 271.382812 409.394531 "></polygon>
            <polygon id="poly-44" stroke="#3D3A0F" fill="#6C871E" sketch:type="MSShapeGroup" points="286.273438 361.056641 335.117188 344.820312 335.117188 413.988281 300 425.160156 286.273438 414.988281 "></polygon>
            <polygon id="poly-45" stroke="#EBD5C8" fill="#879B9F" sketch:type="MSShapeGroup" points="248.609067 244.912109 248.609067 268.84375 248.609067 292.429688 245 323.166016 245 275.998708 "></polygon>
            <polygon id="poly-46" stroke="#5F1716" fill="#BC2E22" sketch:type="MSShapeGroup" points="284.964844 322.740234 284.964844 342.299805 278.314696 344.45513 268.003906 347.796875 252.621094 340.955078 "></polygon>
            <polygon id="poly-47" stroke="#1D1D1D" fill="#E2E3BF" sketch:type="MSShapeGroup" points="310.780273 180.278809 322.513672 178.028809 324.49707 181.958008 320.258301 185.175293 312.443848 184.333008 "></polygon>
            <polygon id="poly-48" stroke="#83999E" fill="#EBD5C8" sketch:type="MSShapeGroup" points="386.632812 350.486328 436.759766 395.547852 431.564453 440.609375 386.632812 374.267578 337.639648 359.475586 "></polygon>
            <polygon id="poly-49" stroke="#1D1D1D" fill="#120D09" sketch:type="MSShapeGroup" points="319.269043 178.722168 319.866699 180.847168 317.859761 182.504395 315.291016 181.738281 314.660645 179.950195 "></polygon>
            <polygon id="poly-50" stroke="#5F1716" fill="#D6392C" sketch:type="MSShapeGroup" points="285.777344 324.444336 314.394531 329.976562 319.274414 342.660156 305.938477 352.365234 285.777344 342.660156 "></polygon>
            <polygon id="poly-51" stroke="#5F1716" fill="#D6392C" sketch:type="MSShapeGroup" points="284.814453 315.771484 284.814453 323.945312 253.011719 340.679222 253.011719 322.945312 265.554768 313.597656 "></polygon>
            <polygon id="poly-52" stroke="#5F1716" fill="#BC2D21" sketch:type="MSShapeGroup" points="254.839354 401.076172 254.839354 351.015625 284.994141 342.5625 270.757812 356.253906 270.757812 409.314453 "></polygon>
            <polygon id="poly-53" stroke="#5F1716" fill="#D6392C" sketch:type="MSShapeGroup" points="285.331055 342.388672 317.96875 351.213867 317.96875 420.044922 301.393555 426.109375 300 358.997514 "></polygon>
            <polygon id="poly-54" stroke="#B4AC5D" fill="#B4AC5D" sketch:type="MSShapeGroup" points="272.492188 208.764648 317.987305 230.587157 313.061523 235.979491 277.955078 235.979491 272.492188 229.996513 "></polygon>
            <path d="M275.141905,179.726741 C277.351439,180.013791 281.770508,180.587891 281.770508,180.587891 L278.09668,185.630859 L272,185.630859 L268.401367,182.587891 L268.803711,178.90332 C268.803711,178.90332 273.029174,179.452268 275.141905,179.726741 Z" id="poly-55" stroke="#1D1D1D" fill="#E2E3BF" sketch:type="MSShapeGroup"></path>
            <polygon id="poly-56" stroke="#1D1D1D" fill="#120D09" sketch:type="MSShapeGroup" points="272 181.384274 272 179 278 180.141975 276.511411 182.551103 273.498983 182.551103 "></polygon>
            <polygon id="poly-57" stroke="#8B9EA1" fill="#C1B0A6" sketch:type="MSShapeGroup" points="398.78125 454.714844 398.78125 392.308594 430.693359 440.844593 401.716797 480.691406 343.570312 479.691406 "></polygon>
            <polygon id="poly-58" stroke="#B4AC5D" fill="#B4AC5D" sketch:type="MSShapeGroup" points="279.556641 198.927734 310.564941 198.927734 319.813965 206.225586 318.296875 229.750488 272.803711 208.112305 "></polygon>
            <polygon id="poly-59" stroke="#545116" fill="#5C7004" sketch:type="MSShapeGroup" points="284.729492 195.110352 306.945312 195.110352 303.042969 201.566406 295.663086 207.467773 288.674805 201.566406 "></polygon>
            <polygon id="poly-60" stroke="#545116" fill="#545116" sketch:type="MSShapeGroup" points="261.21582 216.708984 277.757812 236.869141 313.603516 236.869141 318.961914 240.609375 271.748047 240.609375 "></polygon>
        </g>
    </g>
</svg>