<?xml version="1.0" encoding="UTF-8" standalone="no"?>
<svg width="75px" height="74px" viewBox="0 0 75 74" version="1.1" xmlns="http://www.w3.org/2000/svg" xmlns:xlink="http://www.w3.org/1999/xlink" xmlns:sketch="http://www.bohemiancoding.com/sketch/ns">
    <!-- Generator: Sketch 3.4 (15588) - http://www.bohemiancoding.com/sketch -->
    <title>Polygon 1</title>
    <desc>Created with Sketch.</desc>
    <defs></defs>
    <g id="Welcome" stroke="none" stroke-width="1" fill="none" fill-rule="evenodd" sketch:type="MSPage">
        <g id="Desktop" sketch:type="MSArtboardGroup" transform="translate(-75.000000, -109.000000)" stroke="#002C33" fill="#002C33">
            <path d="M128.678226,110 L148.518669,150.678937 L115.961735,182.118803 L76,160.870771 L83.8592235,116.2989 L128.678226,110 Z M123.960714,144.636339 L123.960714,147.207768 C123.960714,147.917593 123.743082,148.523614 123.307812,149.025848 C122.872542,149.528083 122.306699,149.779197 121.610267,149.779197 L107.46741,149.779197 L113.353571,155.685447 C113.862502,156.167592 114.116964,156.770264 114.116964,157.493482 C114.116964,158.2167 113.862502,158.819373 113.353571,159.301518 L111.846874,160.828304 C111.351336,161.323842 110.748664,161.571607 110.038839,161.571607 C109.342407,161.571607 108.733038,161.323842 108.210714,160.828304 L95.1325886,147.730089 C94.6370504,147.234551 94.3892851,146.631879 94.3892851,145.922054 C94.3892851,145.225622 94.6370504,144.616253 95.1325886,144.093929 L108.210714,131.035893 C108.719645,130.526962 109.329014,130.2725 110.038839,130.2725 C110.735271,130.2725 111.337943,130.526962 111.846874,131.035893 L113.353571,132.5225 C113.862502,133.031431 114.116964,133.6408 114.116964,134.350625 C114.116964,135.06045 113.862502,135.669819 113.353571,136.17875 L107.46741,142.064911 L121.610267,142.064911 C122.306699,142.064911 122.872542,142.316024 123.307812,142.818259 C123.743082,143.320494 123.960714,143.926514 123.960714,144.636339 Z" id="Polygon-1" sketch:type="MSShapeGroup"></path>
        </g>
    </g>
</svg>