<?xml version="1.0" encoding="UTF-8" standalone="no"?>
<svg width="73px" height="75px" viewBox="0 0 73 75" version="1.1" xmlns="http://www.w3.org/2000/svg" xmlns:xlink="http://www.w3.org/1999/xlink" xmlns:sketch="http://www.bohemiancoding.com/sketch/ns">
    <!-- Generator: Sketch 3.4 (15588) - http://www.bohemiancoding.com/sketch -->
    <title>Polygon 1 Copy</title>
    <desc>Created with Sketch.</desc>
    <defs></defs>
    <g id="Welcome" stroke="none" stroke-width="1" fill="none" fill-rule="evenodd" sketch:type="MSPage">
        <g id="Desktop" sketch:type="MSArtboardGroup" transform="translate(-318.000000, -109.000000)" stroke="#002C33" fill="#002C33">
            <path d="M342.983862,183.052964 L319,144.670761 L348.092223,110 L390.056068,126.954494 L386.898927,172.103708 L342.983862,183.052964 Z M371.477645,148.716819 C371.477645,149.440037 371.229879,150.049406 370.734341,150.544944 L357.656216,163.623069 C357.133892,164.118608 356.524523,164.366373 355.828091,164.366373 C355.145052,164.366373 354.542379,164.118608 354.020055,163.623069 L352.513359,162.116373 C352.004428,161.607442 351.749966,160.998073 351.749966,160.288248 C351.749966,159.578423 352.004428,158.969054 352.513359,158.460123 L358.39952,152.573962 L344.256662,152.573962 C343.56023,152.573962 342.994388,152.322849 342.559118,151.820614 C342.123848,151.318379 341.906216,150.712359 341.906216,150.002534 L341.906216,147.431105 C341.906216,146.72128 342.123848,146.115259 342.559118,145.613025 C342.994388,145.11079 343.56023,144.859677 344.256662,144.859677 L358.39952,144.859677 L352.513359,138.953427 C352.004428,138.471281 351.749966,137.868609 351.749966,137.145391 C351.749966,136.422173 352.004428,135.8195 352.513359,135.337355 L354.020055,133.830659 C354.528986,133.321728 355.131659,133.067266 355.828091,133.067266 C356.537916,133.067266 357.147285,133.321728 357.656216,133.830659 L370.734341,146.908784 C371.229879,147.377536 371.477645,147.980209 371.477645,148.716819 Z" id="Polygon-1-Copy" sketch:type="MSShapeGroup"></path>
        </g>
    </g>
</svg>