<?xml version="1.0" encoding="UTF-8" standalone="no"?>
<svg width="1440px" height="61px" viewBox="0 0 1440 61" version="1.1" xmlns="http://www.w3.org/2000/svg" xmlns:xlink="http://www.w3.org/1999/xlink" xmlns:sketch="http://www.bohemiancoding.com/sketch/ns">
    <!-- Generator: Sketch 3.4 (15588) - http://www.bohemiancoding.com/sketch -->
    <title>Path 1</title>
    <desc>Created with Sketch.</desc>
    <defs></defs>
    <g id="Welcome" stroke="none" stroke-width="1" fill="none" fill-rule="evenodd" sketch:type="MSPage">
        <g id="Desktop-HD" sketch:type="MSArtboardGroup" transform="translate(0.000000, -963.000000)" stroke="#FFFFFF" fill="#F9F9F9">
            <path d="M-0.956674503,975.869836 C-0.956674503,975.869836 16.979437,980.326324 51.0890866,970.186563 C85.1987363,960.046803 173.081667,968.569209 173.081667,968.569209 C173.081667,968.569209 210.986833,972.920543 246.153034,972.920543 C281.319235,972.920543 355.602345,959.651227 423.536244,966.285885 C491.470144,972.920543 500.224016,987.511783 563.920597,980.216163 C627.617178,972.920543 672.355478,963.433594 790.691406,975.996094 C909.027334,988.558594 1024.8672,990.691406 1065.86328,983.34375 C1106.85937,975.996094 1197.65235,964.867187 1261.69141,964.867188 C1325.73046,964.867188 1440.0664,981.472656 1440.0664,981.472656 L1440.06641,1024.30469 L0.09375,1024.82422 L-0.956674503,975.869836 Z" id="Path-1" sketch:type="MSShapeGroup"></path>
        </g>
    </g>
</svg>